<svg xmlns="http://www.w3.org/2000/svg" version="1.1" xmlns:xlink="http://www.w3.org/1999/xlink" xmlns:svgjs="http://svgjs.dev/svgjs" viewBox="0 0 800 800"><defs><linearGradient x1="50%" y1="0%" x2="50%" y2="100%" id="cccoil-grad"><stop stop-color="hsl(206, 75%, 49%)" stop-opacity="1" offset="0%"></stop><stop stop-color="hsl(331, 90%, 56%)" stop-opacity="1" offset="100%"></stop></linearGradient></defs><g stroke="url(#cccoil-grad)" fill="none" stroke-linecap="round"><circle r="408" cx="400" cy="400" stroke-width="14.5" stroke-dasharray="2128 2564" transform="rotate(360, 400, 400)" opacity="0.05"></circle><circle r="391" cx="400" cy="400" stroke-width="14.5" stroke-dasharray="1950 2457" transform="rotate(344, 400, 400)" opacity="0.09"></circle><circle r="374" cx="400" cy="400" stroke-width="14.5" stroke-dasharray="1781 2350" transform="rotate(329, 400, 400)" opacity="0.13"></circle><circle r="357" cx="400" cy="400" stroke-width="14.5" stroke-dasharray="1619 2243" transform="rotate(313, 400, 400)" opacity="0.17"></circle><circle r="340" cx="400" cy="400" stroke-width="14.5" stroke-dasharray="1465 2136" transform="rotate(297, 400, 400)" opacity="0.22"></circle><circle r="323" cx="400" cy="400" stroke-width="14.5" stroke-dasharray="1318 2029" transform="rotate(282, 400, 400)" opacity="0.26"></circle><circle r="306" cx="400" cy="400" stroke-width="14.5" stroke-dasharray="1180 1923" transform="rotate(266, 400, 400)" opacity="0.30"></circle><circle r="289" cx="400" cy="400" stroke-width="14.5" stroke-dasharray="1048 1816" transform="rotate(250, 400, 400)" opacity="0.34"></circle><circle r="272" cx="400" cy="400" stroke-width="14.5" stroke-dasharray="925 1709" transform="rotate(235, 400, 400)" opacity="0.38"></circle><circle r="255" cx="400" cy="400" stroke-width="14.5" stroke-dasharray="809 1602" transform="rotate(219, 400, 400)" opacity="0.42"></circle><circle r="238" cx="400" cy="400" stroke-width="14.5" stroke-dasharray="702 1495" transform="rotate(203, 400, 400)" opacity="0.46"></circle><circle r="221" cx="400" cy="400" stroke-width="14.5" stroke-dasharray="601 1389" transform="rotate(188, 400, 400)" opacity="0.50"></circle><circle r="204" cx="400" cy="400" stroke-width="14.5" stroke-dasharray="509 1282" transform="rotate(172, 400, 400)" opacity="0.55"></circle><circle r="187" cx="400" cy="400" stroke-width="14.5" stroke-dasharray="424 1175" transform="rotate(157, 400, 400)" opacity="0.59"></circle><circle r="170" cx="400" cy="400" stroke-width="14.5" stroke-dasharray="347 1068" transform="rotate(141, 400, 400)" opacity="0.63"></circle><circle r="153" cx="400" cy="400" stroke-width="14.5" stroke-dasharray="278 961" transform="rotate(125, 400, 400)" opacity="0.67"></circle><circle r="136" cx="400" cy="400" stroke-width="14.5" stroke-dasharray="216 855" transform="rotate(110, 400, 400)" opacity="0.71"></circle><circle r="119" cx="400" cy="400" stroke-width="14.5" stroke-dasharray="162 748" transform="rotate(94, 400, 400)" opacity="0.75"></circle><circle r="102" cx="400" cy="400" stroke-width="14.5" stroke-dasharray="116 641" transform="rotate(78, 400, 400)" opacity="0.79"></circle><circle r="85" cx="400" cy="400" stroke-width="14.5" stroke-dasharray="77 534" transform="rotate(63, 400, 400)" opacity="0.83"></circle><circle r="68" cx="400" cy="400" stroke-width="14.5" stroke-dasharray="46 427" transform="rotate(47, 400, 400)" opacity="0.88"></circle><circle r="51" cx="400" cy="400" stroke-width="14.5" stroke-dasharray="23 320" transform="rotate(31, 400, 400)" opacity="0.92"></circle><circle r="34" cx="400" cy="400" stroke-width="14.5" stroke-dasharray="8 214" transform="rotate(16, 400, 400)" opacity="0.96"></circle><circle r="17" cx="400" cy="400" stroke-width="14.5" stroke-dasharray="0 107" opacity="1.00"></circle></g></svg>